<svg width="50" height="30" viewBox="0 0 50 30" fill="none" xmlns="http://www.w3.org/2000/svg">
<path d="M10.8914 17.2057C10.5229 17.9428 9.47107 17.9428 9.10254 17.2057L8.22118 15.443C8.08041 15.1615 8.08041 14.8301 8.22118 14.5486L9.10254 12.7859C9.47107 12.0488 10.5229 12.0488 10.8914 12.7859L11.7728 14.5486C11.9135 14.8301 11.9135 15.1615 11.7728 15.443L10.8914 17.2057ZM10.8914 27.2028C10.5229 27.9398 9.47107 27.9398 9.10254 27.2028L8.22118 25.44C8.08041 25.1585 8.08041 24.8271 8.22118 24.5456L9.10254 22.7829C9.47107 22.0458 10.5229 22.0458 10.8914 22.7829L11.7728 24.5456C11.9135 24.8271 11.9135 25.1585 11.7728 25.44L10.8914 27.2028Z" fill="white"/>
<path d="M0 23.4082C0 22.5173 1.07714 22.0711 1.70711 22.7011L6.29049 27.2845C6.92046 27.9145 6.47429 28.9916 5.58339 28.9916H0.999999C0.447715 28.9916 0 28.5439 0 27.9916V23.4082ZM0 18.5804C0 18.8456 0.105357 19.1 0.292893 19.2875L9.70411 28.6987C9.89164 28.8862 10.146 28.9916 10.4112 28.9916H15.5804C16.4713 28.9916 16.9175 27.9145 16.2875 27.2845L1.70711 12.7041C1.07714 12.0741 0 12.5203 0 13.4112V18.5804ZM0 8.58338C0 8.84859 0.105357 9.10295 0.292893 9.29048L19.7011 28.6987C19.8886 28.8862 20.143 28.9916 20.4082 28.9916H25.5774C26.4683 28.9916 26.9145 27.9145 26.2845 27.2845L1.70711 2.7071C1.07715 2.07714 0 2.52331 0 3.41421V8.58338ZM9.997 8.58338C9.997 8.84859 10.1024 9.10295 10.2899 9.29048L28.2839 27.2845C28.9139 27.9145 29.991 27.4683 29.991 26.5774V21.4082C29.991 21.143 29.8856 20.8886 29.6981 20.7011L11.7041 2.70709C11.0741 2.07713 9.997 2.52331 9.997 3.41421V8.58338ZM21.7011 2.7071C21.0711 2.07713 19.994 2.52331 19.994 3.41421V8.58338C19.994 8.84859 20.0994 9.10295 20.2869 9.29048L28.2839 17.2875C28.9139 17.9175 29.991 17.4713 29.991 16.5804V11.4112C29.991 11.146 29.8856 10.8916 29.6981 10.7041L21.7011 2.7071Z" fill="white"/>
<path d="M42.5248 23.5308L33.1121 14.1181C32.4821 13.4881 31.405 13.9343 31.405 14.8252V27.9916C31.405 28.5439 31.8527 28.9916 32.405 28.9916H46.9856C47.5379 28.9916 47.9856 28.5439 47.9856 27.9916V26.7926C47.9856 26.2403 47.536 25.7992 46.9883 25.7279C45.3076 25.5091 43.7355 24.7415 42.5248 23.5308ZM36.2035 25.7926C35.3206 25.7926 34.604 25.076 34.604 24.193C34.604 23.3101 35.3206 22.5935 36.2035 22.5935C37.0865 22.5935 37.8031 23.3101 37.8031 24.193C37.8031 25.076 37.0865 25.7926 36.2035 25.7926Z" fill="white"/>
<path d="M0 27.9916C0 28.5439 0.447715 28.9916 1 28.9916H5.58339C6.47429 28.9916 6.92046 27.9145 6.2905 27.2845L1.70711 22.7011C1.07714 22.0711 0 22.5173 0 23.4082V27.9916ZM9.997 10.997L1.70711 2.7071C1.07714 2.07713 0 2.5233 0 3.4142V8.58338C0 8.84859 0.105357 9.10295 0.292893 9.29048L9.997 18.9946V10.997ZM1.70711 12.7041C1.07714 12.0741 0 12.5203 0 13.4112V18.5804C0 18.8456 0.105357 19.1 0.292893 19.2875L9.997 28.9916V20.994L1.70711 12.7041Z" fill="white"/>
<path d="M19.994 11.4112C19.994 11.146 19.8887 10.8916 19.7011 10.7041L11.7041 2.7071C11.0742 2.07713 9.99701 2.5233 9.99701 3.4142V8.58338C9.99701 8.84859 10.1024 9.10295 10.2899 9.29048L19.994 18.9946V11.4112ZM9.99701 28.9916H15.5804C16.4713 28.9916 16.9175 27.9145 16.2875 27.2845L9.99701 20.994V28.9916ZM9.99701 10.997V18.5804C9.99701 18.8456 10.1024 19.1 10.2899 19.2875L19.994 28.9916V21.4082C19.994 21.143 19.8887 20.8886 19.7011 20.7011L9.99701 10.997Z" fill="white"/>
</svg>
